<?xml version="1.0"?>

<!DOCTYPE svg PUBLIC '-//W3C//DTD SVG 1.0//EN' 'http://www.w3.org/TR/2001/REC-SVG-20010904/DTD/svg10.dtd'>
<svg width="100%" height="100%" viewBox="0 0 684 648" fill-opacity="1" xmlns:xlink="http://www.w3.org/1999/xlink" color-rendering="auto" color-interpolation="auto" text-rendering="auto" stroke="black" stroke-linecap="square" stroke-miterlimit="10" shape-rendering="auto" stroke-opacity="1" fill="black" stroke-dasharray="none" font-weight="normal" stroke-width="1" xmlns="http://www.w3.org/2000/svg" font-family="&apos;Dialog&apos;" font-style="normal" stroke-linejoin="miter" font-size="12" stroke-dashoffset="0" image-rendering="auto">
  <!--Unicode Character 'SPIRAL NOTE PAD' (U+1F5D2)-->
  <defs id="genericDefs" />
  <g>
    <g>
      <path d="M256.2188 343.2656 L45.2812 343.2656 L45.2812 330.4688 L31.7812 330.4688 L31.7812 85.0781 L66.0938 85.0781 Q66.5156 79.0312 69.6094 74.3906 Q73.2656 68.9062 78.8906 68.9062 Q90.2812 68.9062 91.5469 85.0781 L121.7812 85.0781 Q122.2031 79.0312 125.2969 74.3906 Q128.9531 68.9062 134.5781 68.9062 Q145.9688 68.9062 147.2344 85.0781 L178.7344 85.0781 Q179.1562 79.0312 182.3906 74.3906 Q186.0469 68.9062 191.6719 68.9062 Q203.0625 68.9062 204.3281 85.0781 L242.7188 85.0781 L242.7188 97.875 L256.2188 97.875 L256.2188 343.2656 ZM249.75 336.7969 L249.75 104.3438 L242.7188 104.3438 L242.7188 330.4688 L51.6094 330.4688 L51.6094 336.7969 L249.75 336.7969 ZM236.3906 324 L236.3906 91.5469 L191.8125 91.5469 Q192.2344 94.6406 194.6953 97.1016 Q197.1562 99.5625 197.1562 100.6875 Q197.1562 105.4688 191.6719 105.4688 Q181.4062 105.4688 179.0156 91.5469 L134.7188 91.5469 Q135.1406 94.6406 137.6719 97.1016 Q140.2031 99.5625 140.2031 100.6875 Q140.2031 105.4688 134.5781 105.4688 Q124.3125 105.4688 121.9219 91.5469 L79.0312 91.5469 Q79.4531 94.6406 81.9844 97.1016 Q84.5156 99.5625 84.5156 100.6875 Q84.5156 105.4688 78.8906 105.4688 Q68.625 105.4688 66.2344 91.5469 L38.25 91.5469 L38.25 324 L236.3906 324 Z" stroke="none" />
    </g>
  </g>
</svg>
